<?xml version="1.0" standalone="no"?>
<!DOCTYPE svg PUBLIC "-//W3C//DTD SVG 1.1//EN" "http://www.w3.org/Graphics/SVG/1.1/DTD/svg11.dtd" >
<svg>
<metadata>
Created by FontForge 20090622 at Wed Apr  4 17:16:40 2018
 By deploy user
Copyright (c) 2017, Thor Arisland
</metadata>
<defs>
<font id="Modum" horiz-adv-x="1539" >
  <font-face 
    font-family="Modum"
    font-weight="400"
    font-stretch="normal"
    units-per-em="4096"
    panose-1="2 0 5 9 0 0 0 0 0 0"
    ascent="3056"
    descent="-1040"
    x-height="1279"
    cap-height="2318"
    bbox="-97 -1041 1637 3910"
    underline-thickness="201"
    underline-position="-406"
    unicode-range="U+0020-U+0237"
  />
<missing-glyph 
d="M136 0v2730h1089v-2730h-1089zM272 136h817v2458h-817v-2458z" />
    <glyph glyph-name=".notdef" 
d="M136 0v2730h1089v-2730h-1089zM272 136h817v2458h-817v-2458z" />
    <glyph glyph-name=".null" horiz-adv-x="0" 
 />
    <glyph glyph-name="nonmarkingreturn" 
 />
    <glyph glyph-name="space" unicode=" " 
 />
    <glyph glyph-name="exclam" unicode="!" 
d="M890 -2h-240v241h240v-241zM650 478v1840h240v-1840h-240z" />
    <glyph glyph-name="quotedbl" unicode="&#x22;" 
d="M609 2567h-239v480h239v-480zM930 2567v480h240v-480h-240z" />
    <glyph glyph-name="numbersign" unicode="#" 
d="M130 1840h240v480h239v-480h321v480h240v-480h239v-240h-239v-880h239v-240h-239v-480h-240v480h-321v-480h-239v480h-240v240h240v880h-240v240zM609 1600v-880h321v880h-321z" />
    <glyph glyph-name="dollar" unicode="$" 
d="M890 2078q141 0 260.5 -69.5t189 -189.5t69.5 -261v-12.5v-15v-12.5h-242q4 26 4 40q0 115 -82.5 197.5t-198.5 82.5v-560q141 0 260.5 -69.5t189 -189.5t69.5 -261t-69.5 -261t-189 -189.5t-260.5 -69.5v-240h-240v240q-106 0 -202 41t-166 111t-111 166t-41 202
q0 14 2 40h241q-2 -13 -2 -40q0 -116 82 -198t197 -82v560q-106 0 -202 41t-166 111t-111 166t-41 202t41 202t111 166t166 111t202 41v240h240v-240zM890 478q116 0 198.5 82.5t82.5 197.5t-82.5 197.5t-198.5 82.5v-560zM650 1278v560q-115 0 -197 -82t-82 -198t82 -198
t197 -82z" />
    <glyph glyph-name="percent" unicode="%" 
d="M122 -2l1033 2320h262l-1032 -2320h-263zM1059 718q148 0 253 -105.5t105 -254.5t-105 -254.5t-253 -105.5q-149 0 -254.5 106t-105.5 254t105.5 254t254.5 106zM1059 479q-50 0 -86 -35.5t-36 -85.5t36 -85t86 -35t85 35t35 85t-35 85.5t-85 35.5zM481 2318
q149 0 254.5 -106t105.5 -254t-105.5 -254t-254.5 -106q-148 0 -253.5 105.5t-105.5 254.5t105.5 254.5t253.5 105.5zM481 2079q-50 0 -85 -35.5t-35 -85.5t35 -85.5t85 -35.5t85.5 35.5t35.5 85.5t-35.5 85.5t-85.5 35.5z" />
    <glyph glyph-name="ampersand" unicode="&#x26;" 
d="M1323 -2l-108 154q-194 -154 -445 -154q-146 0 -279.5 57t-230 153.5t-153.5 230t-57 279.5q0 191 92.5 353t248.5 259l-19.5 25t-43.5 65.5t-54.5 98t-43 115t-19.5 124.5q0 114 44 217.5t119 178.5t178.5 119.5t217.5 44.5t217.5 -44.5t178.5 -119.5t119 -178.5
t44 -217.5q0 -113 -43.5 -216t-117.5 -178t-176.5 -120t-215.5 -46l447 -638q26 75 26 158h241q0 -205 -111 -382l111 -157zM529 1134q-109 -63 -173.5 -174t-64.5 -242q0 -130 64 -240.5t174.5 -175t240.5 -64.5q176 0 309 112zM1091 1758q0 132 -94.5 226t-226.5 94
t-226.5 -94t-94.5 -226q0 -38 17.5 -87t42.5 -91t50.5 -78.5t42.5 -57.5l18 -22q82 17 150 17q132 0 226.5 93.5t94.5 225.5z" />
    <glyph glyph-name="quotesingle" unicode="'" 
d="M890 2572h-240v480h240v-480z" />
    <glyph glyph-name="parenleft" unicode="(" 
d="M890 2077q-166 0 -283 -117t-117 -283v-1039q0 -166 117 -283t283 -117h400v-241h-400q-130 0 -248.5 51t-204 137t-136.5 204.5t-51 248.5v1039q0 130 51 248.5t136.5 204.5t204 137t248.5 51h400v-241h-400z" />
    <glyph glyph-name="parenright" unicode=")" 
d="M650 2077h-400v241h400q130 0 248.5 -51t204 -137t136.5 -204.5t51 -248.5v-1039q0 -130 -51 -248.5t-136.5 -204.5t-204 -137t-248.5 -51h-400v241h400q166 0 283 117t117 283v1039q0 166 -117 283t-283 117z" />
    <glyph glyph-name="asterisk" unicode="*" 
d="M650 1363v432h240v-432l374 216l120 -208l-375 -216l375 -216l-120 -208l-374 216v-432h-240v432l-374 -216l-121 208l374 216l-374 216l121 208z" />
    <glyph glyph-name="plus" unicode="+" 
d="M130 1275h520v520h240v-520h519v-240h-519v-520h-240v520h-520v240z" />
    <glyph glyph-name="comma" unicode="," 
d="M810 -400h-241l101 400h-61v240h361z" />
    <glyph glyph-name="hyphen" unicode="-" 
d="M1330 1275v-239h-1120v239h1120z" />
    <glyph glyph-name="period" unicode="." 
d="M890 240v-240h-240v240h240z" />
    <glyph glyph-name="slash" unicode="/" 
d="M122 -2l1033 2320h262l-1032 -2320h-263z" />
    <glyph glyph-name="zero" unicode="0" 
d="M1409 1678v-1040q0 -130 -50.5 -248.5t-136 -204.5t-204 -136.5t-248.5 -50.5t-248.5 51t-204 136.5t-136.5 204t-51 248.5v1040q0 130 51 248.5t136.5 204t204 136.5t248.5 51t248.5 -50.5t204 -136.5t136 -204.5t50.5 -248.5zM1177 1672q0 169 -119 287.5t-288 118.5
t-288 -118.5t-119 -287.5v-1027q0 -169 119 -288t288 -119t288 119t119 288v1027zM1091 1308l-640 -639v338l640 641v-340z" />
    <glyph glyph-name="one" unicode="1" 
d="M650 2318h240v-2080h519v-240h-1279v240h520v1580q-173 -140 -399 -140h-121v240h121q166 0 282.5 117t116.5 283z" />
    <glyph glyph-name="two" unicode="2" 
d="M371 1678h-241q0 130 51 248.5t136.5 204t204 136.5t248.5 51t248 -50.5t203.5 -136t136.5 -203.5t51 -248v-2q0 -130 -50.5 -248.5t-136 -204t-204 -136t-248.5 -50.5q-155 0 -268.5 -104t-128.5 -257v-440h1036v-240h-1279v240h2v440q10 165 97.5 303t230.5 217.5
t310 79.5q166 0 283.5 117t117.5 283t-117.5 283t-283.5 117t-282.5 -117t-116.5 -283z" />
    <glyph glyph-name="three" unicode="3" 
d="M772 1278q166 1 282.5 117.5t116.5 282.5t-117.5 283t-283.5 117t-282.5 -117t-116.5 -283h-241q0 130 51 248.5t136.5 204t204 136.5t248.5 51t248.5 -50.5t204 -136.5t136 -204.5t50.5 -248.5q0 -158 -71.5 -294.5t-194.5 -225.5q123 -89 194.5 -225.5t71.5 -294.5
q0 -130 -50.5 -248.5t-136 -204.5t-204 -136.5t-248.5 -50.5t-248.5 51t-204 136.5t-136.5 204t-51 248.5h241q0 -166 116.5 -283t282.5 -117t283.5 117t117.5 283t-117.5 283.5t-283.5 117.5v239h2z" />
    <glyph glyph-name="four" unicode="4" 
d="M1171 1039h-401q-130 0 -248.5 50.5t-204.5 136t-136.5 204t-50.5 248.5v640h241v-560q0 -130 64 -240.5t174.5 -175t240.5 -64.5h321v1040h238v-2320h-238v1041z" />
    <glyph glyph-name="five" unicode="5" 
d="M770 1278q130 0 248.5 -50.5t204 -136.5t136 -204.5t50.5 -248.5v-2q0 -130 -51 -248t-136.5 -203.5t-203.5 -136t-248 -50.5t-248.5 51t-204 136.5t-136.5 204t-51 248.5h241q0 -166 116.5 -283t282.5 -117t283.5 117t117.5 283t-117.5 283t-283.5 117h-640v1280h1279
v-240h-1036v-800h397z" />
    <glyph glyph-name="six" unicode="6" 
d="M772 -2h-4q-173 0 -320 86t-232.5 233t-85.5 321v1040q0 130 51 248.5t136.5 204t204 136.5t248.5 51h321v-240h-241q-83 0 -152 -14.5t-130.5 -49.5t-104.5 -89t-67.5 -137t-24.5 -190v-320h399q130 0 248.5 -50.5t204 -136.5t136 -204.5t50.5 -248.5t-50.5 -248.5
t-135.5 -204t-203 -136.5t-248 -51zM770 1039h-399v-401q0 -166 115.5 -282.5t281.5 -117.5h2q166 0 283.5 117t117.5 283t-117.5 283.5t-283.5 117.5z" />
    <glyph glyph-name="seven" unicode="7" 
d="M451 1278h720v320q0 107 -25 190t-68 137t-105 89t-131 49.5t-152 14.5h-560v240h640q130 0 248.5 -50.5t204 -136.5t136 -204.5t50.5 -248.5v-1680h-238v1041h-720v239z" />
    <glyph glyph-name="eight" unicode="8" 
d="M770 1278h2q166 1 282.5 117.5t116.5 282.5t-117.5 283t-283.5 117t-282 -116.5t-117 -282.5v-1q0 -166 116.5 -282.5t282.5 -117.5zM770 1039q-166 -1 -282.5 -118t-116.5 -283v-1q1 -166 117 -282.5t282 -116.5t283.5 117t117.5 283t-117.5 283.5t-283.5 117.5z
M130 1680q0 173 86 320t233 232.5t321 85.5q130 0 248.5 -50.5t204 -136.5t136 -204.5t50.5 -248.5q0 -158 -71.5 -294.5t-194.5 -225.5q123 -89 194.5 -225.5t71.5 -294.5q0 -130 -50.5 -248.5t-136 -204.5t-204 -136.5t-248.5 -50.5t-248.5 51t-204 136.5t-136.5 204
t-51 248.5v2q0 157 72 293t195 225q-123 89 -195 225.5t-72 294.5v2z" />
    <glyph glyph-name="nine" unicode="9" 
d="M768 2318h4q130 0 248 -51t203 -136.5t135.5 -204t50.5 -248.5v-1040q0 -130 -50.5 -248.5t-136 -204.5t-204 -136.5t-248.5 -50.5h-319v240h239q83 0 152 14.5t131 49.5t105 89t68 137t25 190v321h-401q-130 0 -248.5 50.5t-204.5 136t-136.5 204t-50.5 248.5
q0 174 85.5 321t232.5 233t320 86zM770 1278h401v400q0 166 -116.5 282.5t-282.5 117.5h-2q-166 0 -282.5 -117t-116.5 -283t116.5 -283t282.5 -117z" />
    <glyph glyph-name="colon" unicode=":" 
d="M890 240v-240h-240v240h240zM890 1280v-240h-240v240h240z" />
    <glyph glyph-name="semicolon" unicode=";" 
d="M810 -400h-241l101 400h-61v240h361zM850 1040h-241v240h241v-240z" />
    <glyph glyph-name="less" unicode="&#x3c;" 
d="M920 1279h340l-640 -639l640 -641h-340l-640 641z" />
    <glyph glyph-name="equal" unicode="=" 
d="M1330 641v-240h-1120v240h1120zM1330 1281v-240h-1120v240h1120z" />
    <glyph glyph-name="greater" unicode="&#x3e;" 
d="M620 1283l640 -639l-640 -641h-340l640 641l-640 639h340z" />
    <glyph glyph-name="question" unicode="?" 
d="M890 -2h-240v240h240v-240zM1171 1678q0 167 -120 283.5t-293 116.5q-163 0 -275.5 -112.5t-112.5 -276.5q0 -2 0.5 -5.5t0.5 -5.5h-241q0 130 51 248.5t136.5 204t204 136.5t248.5 51t248.5 -50.5t204 -136.5t136 -204.5t50.5 -248.5q0 -232 -147.5 -409t-371.5 -219
v-572h-240v800h120q166 0 283.5 117t117.5 283z" />
    <glyph glyph-name="at" unicode="@" 
d="M850 960q0 33 -23.5 57t-56.5 24t-56.5 -24t-23.5 -57v-639q0 -33 23.5 -56.5t56.5 -23.5v-241q-132 0 -225.5 94.5t-93.5 226.5v639q0 132 93.5 226t225.5 94t226.5 -94t94.5 -226v-679q0 -17 11.5 -28.5t28.5 -11.5t28.5 11.5t11.5 28.5v679q0 166 -117.5 283
t-283.5 117t-282.5 -117t-116.5 -283v-639q0 -166 116.5 -283t282.5 -117v-241q-130 0 -248.5 51t-204 137t-136.5 204.5t-51 248.5v639q0 130 51 248.5t136.5 204.5t204 137t248.5 51t248.5 -51t204 -137t136 -204.5t50.5 -248.5v-679q0 -116 -81.5 -198.5t-196.5 -82.5
t-198 83t-83 198v679z" />
    <glyph glyph-name="A" unicode="A" 
d="M371 -2h-241v1680q0 130 51 248.5t136.5 204t204 136.5t248.5 51t248.5 -50.5t204 -136.5t136 -204.5t50.5 -248.5v-1680h-238v1041h-800v-1041zM1171 1278v400q0 166 -117.5 283t-283.5 117t-282.5 -117t-116.5 -283v-400h800z" />
    <glyph glyph-name="B" unicode="B" 
d="M770 2318q130 0 248.5 -50.5t204 -136.5t136 -204.5t50.5 -248.5q0 -158 -71.5 -294.5t-194.5 -225.5q123 -89 194.5 -225.5t71.5 -294.5q0 -130 -50.5 -248.5t-136 -204.5t-204 -136.5t-248.5 -50.5h-640v2320h640zM770 1039h-399v-801h399q166 0 283.5 117t117.5 283
t-117.5 283.5t-283.5 117.5zM770 2078h-399v-800h399q166 0 283.5 117t117.5 283t-117.5 283t-283.5 117z" />
    <glyph glyph-name="C" unicode="C" 
d="M1409 639v-1q0 -130 -50.5 -248.5t-136 -204.5t-204 -136.5t-248.5 -50.5t-248.5 51t-204 136.5t-136.5 204t-51 248.5v1040q0 130 51 248.5t136.5 204t204 136.5t248.5 51t248.5 -50.5t204 -136.5t136 -204.5t50.5 -248.5h-232q-2 167 -121 283.5t-286 116.5
q-169 0 -288 -118.5t-119 -287.5v-1027q0 -169 119 -287.5t288 -118.5q167 0 286 116.5t121 283.5h232z" />
    <glyph glyph-name="D" unicode="D" 
d="M130 -2v2320h640q130 0 248 -50.5t203.5 -136t136.5 -203.5t51 -248v-1042q0 -130 -50.5 -248.5t-136 -204.5t-204 -136.5t-248.5 -50.5h-640zM371 238h319q130 0 241 64t175.5 175t64.5 241v960q0 166 -117.5 283t-283.5 117h-399v-1840z" />
    <glyph glyph-name="E" unicode="E" 
d="M130 2318h1279v-240h-1038v-800h656v-239h-656v-321q0 -130 64 -240.5t174.5 -175t240.5 -64.5h559v-240h-639q-130 0 -248.5 51t-204 136.5t-136.5 204t-51 248.5v1680z" />
    <glyph glyph-name="F" unicode="F" 
d="M130 2318h1279v-240h-1038v-800h656v-239h-656v-1041h-241v2320z" />
    <glyph glyph-name="G" unicode="G" 
d="M770 -2q-130 0 -248.5 51t-204 136.5t-136.5 204t-51 248.5v1040q0 130 51 248.5t136.5 204t204 136.5t248.5 51t248.5 -50.5t204 -136.5t136 -204.5t50.5 -248.5h-232q-2 167 -121 283.5t-286 116.5q-169 0 -288 -118.5t-119 -287.5v-1027q0 -169 119 -287.5t288 -118.5
v-1h401v800h-401v240h639v-1280h-639z" />
    <glyph glyph-name="H" unicode="H" 
d="M130 2318h241v-1040h800v1040h238v-2320h-238v1041h-800v-1041h-241v2320z" />
    <glyph glyph-name="I" unicode="I" 
d="M1409 2078h-519v-1840h519v-240h-1279v240h520v1840h-520v240h1279v-240z" />
    <glyph glyph-name="J" unicode="J" 
d="M1409 2078h-318v-1440q0 -130 -51 -248.5t-136.5 -204t-204 -136.5t-248.5 -51h-321v240h241q130 0 240.5 64.5t174.5 175t64 240.5v1360h-720v240h1279v-240z" />
    <glyph glyph-name="K" unicode="K" 
d="M371 1398h399q166 0 283.5 117t117.5 283v520h238v-520q0 -158 -71.5 -294.5t-194.5 -225.5q123 -89 194.5 -225.5t71.5 -294.5v-760h-238v760q0 166 -117.5 283t-283.5 117h-399v-1160h-241v2320h241v-920z" />
    <glyph glyph-name="L" unicode="L" 
d="M371 2318v-1600q0 -130 64 -240.5t174.5 -175t240.5 -64.5h559v-240h-639q-130 0 -248.5 51t-204 136.5t-136.5 204t-51 248.5v1680h241z" />
    <glyph glyph-name="M" unicode="M" 
d="M770 1447l401 871h238v-2320h-238v1742l-401 -871l-399 871v-1742h-241v2320h241z" />
    <glyph glyph-name="N" unicode="N" 
d="M130 2318h241l800 -1743v1743h238v-2320h-238l-800 1742v-1742h-241v2320z" />
    <glyph glyph-name="O" unicode="O" 
d="M1409 1678v-1039q0 -130 -50.5 -248.5t-136 -204.5t-204 -137t-248.5 -51t-248.5 51t-204 137t-136.5 204.5t-51 248.5v1039q0 130 51 248.5t136.5 204t204 136.5t248.5 51t248.5 -50.5t204 -136.5t136 -204.5t50.5 -248.5zM1171 1678q0 166 -117.5 283t-283.5 117
t-282.5 -117t-116.5 -283v-1039q0 -166 116.5 -283t282.5 -117t283.5 117t117.5 283v1039z" />
    <glyph glyph-name="P" unicode="P" 
d="M130 2318h640q130 0 248.5 -50.5t204 -136.5t136 -204.5t50.5 -248.5t-50.5 -248.5t-136 -204t-204 -136t-248.5 -50.5h-399v-1041h-241v2320zM770 2078h-399v-800h399q166 0 283.5 117t117.5 283t-117.5 283t-283.5 117z" />
    <glyph glyph-name="Q" unicode="Q" 
d="M1151 123q-170 -125 -381 -125q-130 0 -248.5 51t-204 136.5t-136.5 204t-51 248.5v1040q0 130 51 248.5t136.5 204t204 136.5t248.5 51t248.5 -50.5t204 -136.5t136 -204.5t50.5 -248.5v-1040q0 -174 -84 -320q84 -146 84 -320h-238q0 65 -20 125zM1153 510
q24 67 24 135v1027q0 169 -119 287.5t-288 118.5t-288 -118.5t-119 -287.5v-1027q0 -169 119 -287.5t288 -118.5q134 0 240 79q-105 80 -240 80v240q212 0 383 -128z" />
    <glyph glyph-name="R" unicode="R" 
d="M371 -2h-241v2320h640q130 0 248.5 -50.5t204 -136.5t136 -204.5t50.5 -248.5q0 -158 -71.5 -294.5t-194.5 -225.5q123 -89 194.5 -225.5t71.5 -294.5v-640h-238v640q0 166 -117.5 283.5t-283.5 117.5h-399v-1041zM770 2078h-399v-800h399q166 0 283.5 117t117.5 283
t-117.5 283t-283.5 117z" />
    <glyph glyph-name="S" unicode="S" 
d="M768 1039q-130 0 -248 51t-203.5 136.5t-136 203.5t-50.5 248t51 248.5t136.5 204t204 136.5t248.5 51t248.5 -50.5t204 -136.5t136 -204.5t50.5 -248.5h-238q0 166 -117.5 283t-283.5 117t-282.5 -117t-116.5 -283t116.5 -283t282.5 -117h2q130 0 248 -51t203 -136.5
t135.5 -204t50.5 -248.5t-50.5 -248.5t-136 -204.5t-204 -136.5t-248.5 -50.5t-248.5 51t-204 136.5t-136.5 204t-51 248.5h241q0 -166 116.5 -283t282.5 -117t283.5 117t117.5 283t-117.5 283.5t-283.5 117.5h-2z" />
    <glyph glyph-name="T" unicode="T" 
d="M890 -2h-240v2080h-520v240h1279v-240h-519v-2080z" />
    <glyph glyph-name="U" unicode="U" 
d="M130 2318h241v-1680q0 -166 116.5 -283t282.5 -117t283.5 117t117.5 283v1680h238v-1680q0 -130 -50.5 -248.5t-136 -204.5t-204 -136.5t-248.5 -50.5t-248.5 51t-204 136.5t-136.5 204t-51 248.5v1680z" />
    <glyph glyph-name="V" unicode="V" 
d="M136 2338h241l-14 -1583l401 -400l399 400l14 1583h238l-12 -1703l-639 -640l-640 640z" />
    <glyph glyph-name="W" unicode="W" 
d="M770 869l-399 -871h-241v2320h241v-1743l399 872l401 -872v1743h238v-2320h-238z" />
    <glyph glyph-name="X" unicode="X" 
d="M371 2318v-520q0 -45 22 -91.5t57 -84.5t77.5 -74t85.5 -62.5l78 -46.5t57 -31l22 -10l22.5 11t56.5 29.5t79.5 47t84 62t79.5 74.5t56 84t23 92v520h238v-520q0 -62 -26.5 -125.5t-67.5 -117t-98.5 -106.5t-111.5 -93t-115 -78q61 -38 115 -78t111.5 -93t98.5 -106.5
t67.5 -117t26.5 -125.5v-760h-238v760q0 62 -41.5 126t-100.5 111t-117.5 85t-99.5 58l-42 20l-22.5 -11t-56 -29.5t-79 -47t-83.5 -62t-79.5 -74.5t-56 -84t-22.5 -92v-760h-241v760q0 77 38 154t104.5 144.5t133 120t145.5 101.5q-79 49 -145.5 101.5t-133 120
t-104.5 144.5t-38 154v520h241z" />
    <glyph glyph-name="Y" unicode="Y" 
d="M371 2318v-520q0 -45 22 -91.5t57 -84.5t77.5 -74t85.5 -62.5l78 -46.5t57 -31l22 -10l22.5 11t56.5 29.5t79.5 47t84 62t79.5 74.5t56 84t23 92v520h238v-520q0 -73 -37 -149t-91.5 -136t-129 -120t-135.5 -99t-126 -75v-1221h-240v1221q-65 36 -126 75t-136 99
t-129 120t-91.5 136t-37.5 149v520h241z" />
    <glyph glyph-name="Z" unicode="Z" 
d="M130 758q0 72 35.5 146.5t91.5 135.5t124.5 118t137 99.5l124.5 75t91 49.5l36 16q12 6 33 17.5t78.5 47t106.5 71t102 86t81 95.5v363h-1041v240h1279v-520q0 -57 -22 -115t-59 -108.5t-85 -99.5t-100.5 -89.5t-105.5 -76.5t-101 -63.5l-85 -47.5t-59 -30l-22 -10
l-22.5 -11t-56 -29.5t-79 -47t-83.5 -62t-79.5 -74.5t-56 -84t-22.5 -92v-520h1038v-240h-1279v760z" />
    <glyph glyph-name="bracketleft" unicode="[" 
d="M210 2318h1120v-241h-880v-1839h880v-241h-1120v2321z" />
    <glyph glyph-name="backslash" unicode="\" 
d="M1417 -2h-262l-1033 2320h263z" />
    <glyph glyph-name="bracketright" unicode="]" 
d="M1330 2318v-2321h-1120v241h880v1839h-880v241h1120z" />
    <glyph glyph-name="asciicircum" unicode="^" 
d="M1409 2431v-340l-639 640l-640 -640v340l640 639z" />
    <glyph glyph-name="underscore" unicode="_" 
d="M1409 238v-240h-1279v240h1279z" />
    <glyph glyph-name="grave" unicode="`" 
d="M1001 2572h-239l-224 480h240z" />
    <glyph glyph-name="a" unicode="a" 
d="M768 1282h4q130 0 248 -51t203 -136.5t135.5 -204t50.5 -248.5v-640h-639q-130 0 -248.5 51t-204 136.5t-136.5 204t-51 248.5q0 174 85.5 321t232.5 233t320 86zM770 1042q-166 0 -282.5 -117t-116.5 -283t116.5 -283t282.5 -117h401v400q0 166 -116.5 282.5
t-282.5 117.5h-2z" />
    <glyph glyph-name="b" unicode="b" 
d="M770 1278q130 0 248.5 -50.5t204 -136t136 -204t50.5 -248.5t-50.5 -248.5t-136 -204.5t-204 -137t-248.5 -51t-248.5 51t-204 137t-136.5 204.5t-51 248.5v1679h241v-1040h399zM371 1039v-400q0 -166 116.5 -283t282.5 -117t283.5 117t117.5 283t-117.5 283t-283.5 117
h-399z" />
    <glyph glyph-name="c" unicode="c" 
d="M1409 2h-639q-130 0 -248.5 51t-204 136.5t-136.5 204t-51 248.5t51 248.5t136.5 204t204 136.5t248.5 51h639v-240h-639q-166 0 -282.5 -117t-116.5 -283t116.5 -283t282.5 -117h639v-240z" />
    <glyph glyph-name="d" unicode="d" 
d="M1171 1278v1040h238v-1679q0 -130 -50.5 -248.5t-136 -204.5t-204 -137t-248.5 -51t-248.5 51t-204 137t-136.5 204.5t-51 248.5t50.5 248.5t136.5 204t204.5 136t248.5 50.5h401zM1171 1039h-401q-166 0 -282.5 -117t-116.5 -283t116.5 -283t282.5 -117t283.5 117
t117.5 283v400z" />
    <glyph glyph-name="e" unicode="e" 
d="M1409 2h-639q-130 0 -248.5 51t-204 136.5t-136.5 204t-51 248.5q0 167 79.5 310t217.5 230.5t303 97.5v2h301q157 0 267.5 -111t110.5 -269t-110.5 -269t-267.5 -111h-642q39 -123 143.5 -201.5t237.5 -78.5h639v-240zM389 762h642q58 0 99 41t41 99t-41 99t-99 41h-261
q-133 0 -237.5 -78.5t-143.5 -201.5z" />
    <glyph glyph-name="f" unicode="f" 
d="M1409 2078h-158q-166 0 -283.5 -117t-117.5 -283v-400h559v-239h-559v-1041h-241v1041h-479v239h479v400q0 130 51 248.5t137 204t205 136.5t249 51h158v-240z" />
    <glyph glyph-name="g" unicode="g" 
d="M768 1280h4q130 0 248 -51t203 -136.5t135.5 -204t50.5 -248.5v-1040q0 -130 -50.5 -248.5t-136 -204.5t-204 -137t-248.5 -51t-248.5 51t-204 137t-136.5 204.5t-51 248.5h233q2 -167 121 -283.5t286 -116.5q169 0 288 118.5t119 287.5v394h-407q-130 0 -248.5 51
t-204 136.5t-136.5 204t-51 248.5q0 174 85.5 321t232.5 233t320 86zM770 1040q-166 0 -282.5 -117t-116.5 -283t116.5 -283t282.5 -117h401v400q0 166 -116.5 282.5t-282.5 117.5h-2z" />
    <glyph glyph-name="h" unicode="h" 
d="M130 2318h241v-1180q173 140 399 140q130 0 248.5 -50.5t204 -136t136 -204t50.5 -248.5v-641h-238v641q0 166 -117.5 283t-283.5 117t-282.5 -117t-116.5 -283v-641h-241v2320z" />
    <glyph glyph-name="i" unicode="i" 
d="M890 2136v-240h-240v240h240zM1409 0h-1279v241h520v800h-520v239h760v-1039h519v-241z" />
    <glyph glyph-name="j" unicode="j" 
d="M890 2138v-240h-240v240h240zM1409 1044h-479v-1440q0 -130 -50.5 -248.5t-136 -204.5t-204 -136.5t-248.5 -50.5h-161v240h161q166 0 282.5 117t116.5 283v1440h-560v240h1279v-240z" />
    <glyph glyph-name="k" unicode="k" 
d="M371 518v-520h-241v2320h241v-1560h399q166 0 283.5 117t117.5 283v120h238v-120q0 -158 -71.5 -294t-194.5 -225q123 -89 194.5 -226t71.5 -295v-120h-238v120q0 166 -117.5 283t-283.5 117h-399z" />
    <glyph glyph-name="l" unicode="l" 
d="M890 239h519v-241h-1279v241h520v1839h-520v240h760v-2079z" />
    <glyph glyph-name="m" unicode="m" 
d="M371 1042v-1040h-241v1280h381q148 0 259 -103q109 103 261 103q157 0 267.5 -111t110.5 -269v-900h-238v900q0 58 -41 99t-99 41t-99.5 -41t-41.5 -99v-900h-240v900q0 58 -41.5 99t-99.5 41h-138z" />
    <glyph glyph-name="n" unicode="n" 
d="M130 2v640q0 130 51 248.5t136.5 204t204 136.5t248.5 51t248.5 -50.5t204 -136.5t136 -204.5t50.5 -248.5v-640h-238v640q0 166 -117.5 283t-283.5 117t-282.5 -117t-116.5 -283v-640h-241z" />
    <glyph glyph-name="o" unicode="o" 
d="M770 1282q130 0 248.5 -50.5t204 -136.5t136 -204.5t50.5 -248.5t-50.5 -248.5t-136 -204.5t-204 -136.5t-248.5 -50.5t-248.5 51t-204 136.5t-136.5 204t-51 248.5t51 248.5t136.5 204t204 136.5t248.5 51zM770 1042q-166 0 -282.5 -117t-116.5 -283t116.5 -283
t282.5 -117t283.5 117t117.5 283t-117.5 283t-283.5 117z" />
    <glyph glyph-name="p" unicode="p" 
d="M361 -934h-241q20 1328 20 1680q0 130 50.5 248.5t136.5 204t204.5 136t248.5 50.5t248.5 -50.5t204 -136t136 -204t50.5 -248.5q0 -169 -81.5 -313.5t-221.5 -232t-308 -94.5h-435zM780 346q166 0 283.5 117t117.5 283t-117.5 283t-283.5 117t-282.5 -117t-116.5 -283
q0 -18 -4 -320h4v-80h399z" />
    <glyph glyph-name="q" unicode="q" 
d="M1181 -934q-8 562 -14 1040h-435q-168 7 -308.5 94.5t-222 232t-81.5 313.5q0 130 50.5 248.5t136.5 204t204.5 136t248.5 50.5t248.5 -50.5t204 -136t136 -204t50.5 -248.5q0 -157 5 -577t10 -761l5 -342h-238zM760 346h401v80h2q-2 151 -2 320q0 166 -117.5 283
t-283.5 117t-282.5 -117t-116.5 -283t116.5 -283t282.5 -117z" />
    <glyph glyph-name="r" unicode="r" 
d="M371 2h-241v640q0 130 51 248.5t136.5 204t204 136.5t248.5 51t248.5 -50.5t204 -136.5t136 -204.5t50.5 -248.5h-238q0 166 -117.5 283t-283.5 117t-282.5 -117t-116.5 -283v-640z" />
    <glyph glyph-name="s" unicode="s" 
d="M1031 522h-522q-157 0 -268 111t-111 269t111 269t268 111h900v-240h-900q-58 0 -98 -41t-40 -99t40 -99t98 -41h522q157 0 267.5 -111t110.5 -269t-110.5 -269t-267.5 -111h-901v240h901q58 0 99 41t41 99t-41 99t-99 41z" />
    <glyph glyph-name="t" unicode="t" 
d="M1409 239v-241h-158q-130 0 -249 51t-205 137t-137 204.5t-51 248.5v400h-479v239h479v1040h241v-1040h559v-239h-559v-400q0 -166 117.5 -283t283.5 -117h158z" />
    <glyph glyph-name="u" unicode="u" 
d="M130 1282h241v-640q0 -166 116.5 -283t282.5 -117t283.5 117t117.5 283v640h238v-640q0 -130 -50.5 -248.5t-136 -204.5t-204 -136.5t-248.5 -50.5t-248.5 51t-204 136.5t-136.5 204t-51 248.5v640z" />
    <glyph glyph-name="v" unicode="v" 
d="M130 1280h240v-520l400 -400l400 400v520h239v-640l-639 -640l-640 640v640z" />
    <glyph glyph-name="w" unicode="w" 
d="M1409 2h-238l-401 400l-399 -400h-241v1280h241v-920l399 400l401 -400v920h238v-1280z" />
    <glyph glyph-name="x" unicode="x" 
d="M371 1282v-120q0 -45 22 -91.5t57 -84.5t77.5 -74t85.5 -62.5l78 -46.5t57 -31l22 -10l22.5 11t56.5 29.5t79.5 47t84 62t79.5 74.5t56 84t23 92v120h238v-120q0 -62 -26.5 -125.5t-67.5 -117t-98.5 -106.5t-111.5 -93t-115 -78q61 -38 115 -78t111.5 -93t98.5 -106.5
t67.5 -117t26.5 -125.5v-120h-238v120q0 62 -41.5 126t-100.5 111t-117.5 85t-99.5 58l-42 20l-22.5 -11t-56 -29.5t-79 -47t-83.5 -62t-79.5 -74.5t-56 -84t-22.5 -92v-120h-241v120q0 77 38 154t104.5 144.5t133 120t145.5 101.5q-79 49 -145.5 101.5t-133 120
t-104.5 144.5t-38 154v120h241z" />
    <glyph glyph-name="y" unicode="y" 
d="M1409 -401q0 -130 -50.5 -248.5t-136 -204.5t-204 -136.5t-248.5 -50.5t-248.5 51t-204 136.5t-136.5 204t-51 248.5v1h233q2 -167 121 -283.5t286 -116.5q164 0 280 117t121 283v540q-173 -140 -401 -140q-130 0 -248.5 51t-204 136.5t-136.5 204t-51 248.5v639h241
v-639q0 -166 116.5 -283t282.5 -117t283.5 117t117.5 283v639h238v-1680z" />
    <glyph glyph-name="z" unicode="z" 
d="M130 1282h1279v-120q0 -57 -22 -115t-59 -108.5t-85 -99.5t-100.5 -89.5t-105.5 -76.5t-101 -63.5l-85 -47.5t-59 -30l-22 -10l-29.5 -14t-69 -38t-94.5 -59.5t-93 -77t-77 -91.5h1002v-240h-1279v120q0 72 35.5 146.5t91.5 135.5t124.5 118t137 99.5l124.5 75t91 49.5
l36 16l29.5 14t69 38t94.5 59.5t93 77t77 91.5h-1003v240z" />
    <glyph glyph-name="braceleft" unicode="{" 
d="M250 1278q166 0 283 117t117 283q0 130 51 248.5t136.5 204t204 136.5t248.5 51v-240q-166 0 -283 -117t-117 -283q0 -158 -72 -294.5t-195 -225.5q123 -89 195 -225.5t72 -294.5q0 -166 117 -283t283 -117v-240q-130 0 -248.5 51t-204 136.5t-136.5 204t-51 248.5
q0 166 -117 283t-283 117v240z" />
    <glyph glyph-name="bar" unicode="|" 
d="M890 -2h-240v2320h240v-2320z" />
    <glyph glyph-name="braceright" unicode="}" 
d="M1290 1278v-240q-166 0 -283 -117t-117 -283q0 -130 -51 -248.5t-136.5 -204t-204 -136.5t-248.5 -51v240q166 0 283 117t117 283q0 158 72 294.5t195 225.5q-123 89 -195 225.5t-72 294.5q0 166 -117 283t-283 117v240q130 0 248.5 -51t204 -136.5t136.5 -204t51 -248.5
q0 -166 117 -283t283 -117z" />
    <glyph glyph-name="asciitilde" unicode="~" 
d="M370 2582h-240v101q0 157 111 268t269 111t269 -111t111 -268v-121q0 -58 41 -98.5t99 -40.5t99 40.5t41 98.5v100h239v-100q0 -158 -111 -269t-268 -111q-158 0 -269 111t-111 269v121q0 58 -41 99t-99 41t-99 -41t-41 -99v-101z" />
    <glyph glyph-name="exclamdown" unicode="&#xa1;" 
d="M890 2318v-241h-240v241h240zM650 1837h240v-1839h-240v1839z" />
    <glyph glyph-name="brokenbar" unicode="&#xa6;" 
d="M890 1385h-240v932h240v-932zM890 -2h-240v931h240v-931z" />
    <glyph glyph-name="dieresis" unicode="&#xa8;" 
d="M612 2814h-239l-3 233h239zM933 2814l-3 233h240l3 -233h-240z" />
    <glyph glyph-name="ordfeminine" unicode="&#xaa;" 
d="M768 1282h4q130 0 248 -51t203 -136.5t135.5 -204t50.5 -248.5v-640h-639q-130 0 -248.5 51t-204 136.5t-136.5 204t-51 248.5q0 174 85.5 321t232.5 233t320 86zM770 1042q-166 0 -282.5 -117t-116.5 -283t116.5 -283t282.5 -117h401v400q0 166 -116.5 282.5
t-282.5 117.5h-2z" />
    <glyph glyph-name="degree" unicode="&#xb0;" 
d="M770 3054q148 0 253.5 -105t105.5 -254t-105.5 -254.5t-253.5 -105.5t-253.5 105.5t-105.5 254.5t105.5 254t253.5 105zM770 2816q-50 0 -85 -35.5t-35 -85.5t35 -85.5t85 -35.5t85 35.5t35 85.5t-35 85.5t-85 35.5z" />
    <glyph glyph-name="plusminus" unicode="&#xb1;" 
d="M1403 755v-240l-1279 12v240l526 -5v273h-520v240h520v520h240v-520h519v-240h-519v-275z" />
    <glyph glyph-name="uni00B2" unicode="&#xb2;" 
d="M371 1678h-241q0 130 51 248.5t136.5 204t204 136.5t248.5 51t248 -50.5t203.5 -136t136.5 -203.5t51 -248v-2q0 -130 -50.5 -248.5t-136 -204t-204 -136t-248.5 -50.5q-155 0 -268.5 -104t-128.5 -257v-440h1036v-240h-1279v240h2v440q10 165 97.5 303t230.5 217.5
t310 79.5q166 0 283.5 117t117.5 283t-117.5 283t-283.5 117t-282.5 -117t-116.5 -283z" />
    <glyph glyph-name="uni00B3" unicode="&#xb3;" 
d="M772 1278q166 1 282.5 117.5t116.5 282.5t-117.5 283t-283.5 117t-282.5 -117t-116.5 -283h-241q0 130 51 248.5t136.5 204t204 136.5t248.5 51t248.5 -50.5t204 -136.5t136 -204.5t50.5 -248.5q0 -158 -71.5 -294.5t-194.5 -225.5q123 -89 194.5 -225.5t71.5 -294.5
q0 -130 -50.5 -248.5t-136 -204.5t-204 -136.5t-248.5 -50.5t-248.5 51t-204 136.5t-136.5 204t-51 248.5h241q0 -166 116.5 -283t282.5 -117t283.5 117t117.5 283t-117.5 283.5t-283.5 117.5v239h2z" />
    <glyph glyph-name="acute" unicode="&#xb4;" 
d="M538 2572l224 480h239l-223 -480h-240z" />
    <glyph glyph-name="periodcentered" unicode="&#xb7;" 
d="M890 240v-240h-240v240h240z" />
    <glyph glyph-name="uni00B9" unicode="&#xb9;" 
d="M650 2318h240v-2080h519v-240h-1279v240h520v1580q-173 -140 -399 -140h-121v240h121q166 0 282.5 117t116.5 283z" />
    <glyph glyph-name="ordmasculine" unicode="&#xba;" 
d="M770 1282q130 0 248.5 -50.5t204 -136.5t136 -204.5t50.5 -248.5t-50.5 -248.5t-136 -204.5t-204 -136.5t-248.5 -50.5t-248.5 51t-204 136.5t-136.5 204t-51 248.5t51 248.5t136.5 204t204 136.5t248.5 51zM770 1042q-166 0 -282.5 -117t-116.5 -283t116.5 -283
t282.5 -117t283.5 117t117.5 283t-117.5 283t-283.5 117z" />
    <glyph glyph-name="questiondown" unicode="&#xbf;" 
d="M890 2318v-240h-240v240h240zM1171 638q0 166 -117.5 283t-283.5 117h-120v799h240v-571q224 -42 371.5 -219t147.5 -409q0 -130 -50.5 -248.5t-136 -204.5t-204 -136.5t-248.5 -50.5t-248.5 51t-204 136.5t-136.5 204t-51 248.5h241q0 -2 -0.5 -5.5t-0.5 -5.5
q0 -164 112.5 -276.5t275.5 -112.5q173 0 293 116.5t120 283.5z" />
    <glyph glyph-name="Agrave" unicode="&#xc0;" 
d="M1001 2931h-239l-224 480h240zM371 -2h-241v1680q0 130 51 248.5t136.5 204t204 136.5t248.5 51t248.5 -50.5t204 -136.5t136 -204.5t50.5 -248.5v-1680h-238v1041h-800v-1041zM1171 1278v400q0 166 -117.5 283t-283.5 117t-282.5 -117t-116.5 -283v-400h800z" />
    <glyph glyph-name="Aacute" unicode="&#xc1;" 
d="M538 2931l224 480h239l-223 -480h-240zM371 -2h-241v1680q0 130 51 248.5t136.5 204t204 136.5t248.5 51t248.5 -50.5t204 -136.5t136 -204.5t50.5 -248.5v-1680h-238v1041h-800v-1041zM1171 1278v400q0 166 -117.5 283t-283.5 117t-282.5 -117t-116.5 -283v-400h800z
" />
    <glyph glyph-name="Acircumflex" unicode="&#xc2;" 
d="M1409 3271v-340l-639 640l-640 -640v340l640 639zM371 -2h-241v1680q0 130 51 248.5t136.5 204t204 136.5t248.5 51t248.5 -50.5t204 -136.5t136 -204.5t50.5 -248.5v-1680h-238v1041h-800v-1041zM1171 1278v400q0 166 -117.5 283t-283.5 117t-282.5 -117t-116.5 -283
v-400h800z" />
    <glyph glyph-name="Atilde" unicode="&#xc3;" 
d="M370 3331h-240v101q0 157 111 268t269 111t269 -111t111 -268v-121q0 -58 41 -98.5t99 -40.5t99 40.5t41 98.5v100h239v-100q0 -158 -111 -269t-268 -111q-158 0 -269 111t-111 269v121q0 58 -41 99t-99 41t-99 -41t-41 -99v-101zM371 -2h-241v1680q0 130 51 248.5
t136.5 204t204 136.5t248.5 51t248.5 -50.5t204 -136.5t136 -204.5t50.5 -248.5v-1680h-238v1041h-800v-1041zM1171 1278v400q0 166 -117.5 283t-283.5 117t-282.5 -117t-116.5 -283v-400h800z" />
    <glyph glyph-name="Adieresis" unicode="&#xc4;" 
d="M610 2931h-239l-3 233h239zM931 2931l-3 233h240l3 -233h-240zM371 -2h-241v1680q0 130 51 248.5t136.5 204t204 136.5t248.5 51t248.5 -50.5t204 -136.5t136 -204.5t50.5 -248.5v-1680h-238v1041h-800v-1041zM1171 1278v400q0 166 -117.5 283t-283.5 117t-282.5 -117
t-116.5 -283v-400h800z" />
    <glyph glyph-name="Aring" unicode="&#xc5;" 
d="M770 3055q148 0 253.5 -105t105.5 -254t-105.5 -254.5t-253.5 -105.5t-253.5 105.5t-105.5 254.5t105.5 254t253.5 105zM770 2817q-50 0 -85 -35.5t-35 -85.5t35 -85.5t85 -35.5t85 35.5t35 85.5t-35 85.5t-85 35.5zM371 -2h-241v1680q0 130 51 248.5t136.5 204
t204 136.5t248.5 51t248.5 -50.5t204 -136.5t136 -204.5t50.5 -248.5v-1680h-238v1041h-800v-1041zM1171 1278v400q0 166 -117.5 283t-283.5 117t-282.5 -117t-116.5 -283v-400h800z" />
    <glyph glyph-name="Egrave" unicode="&#xc8;" 
d="M1001 2931h-239l-224 480h240zM130 2318h1279v-240h-1038v-800h656v-239h-656v-321q0 -130 64 -240.5t174.5 -175t240.5 -64.5h559v-240h-639q-130 0 -248.5 51t-204 136.5t-136.5 204t-51 248.5v1680z" />
    <glyph glyph-name="Eacute" unicode="&#xc9;" 
d="M538 2931l224 480h239l-223 -480h-240zM130 2318h1279v-240h-1038v-800h656v-239h-656v-321q0 -130 64 -240.5t174.5 -175t240.5 -64.5h559v-240h-639q-130 0 -248.5 51t-204 136.5t-136.5 204t-51 248.5v1680z" />
    <glyph glyph-name="Ecircumflex" unicode="&#xca;" 
d="M1409 3271v-340l-639 640l-640 -640v340l640 639zM130 2318h1279v-240h-1038v-800h656v-239h-656v-321q0 -130 64 -240.5t174.5 -175t240.5 -64.5h559v-240h-639q-130 0 -248.5 51t-204 136.5t-136.5 204t-51 248.5v1680z" />
    <glyph glyph-name="Edieresis" unicode="&#xcb;" 
d="M610 2931h-239l-3 233h239zM931 2931l-3 233h240l3 -233h-240zM130 2318h1279v-240h-1038v-800h656v-239h-656v-321q0 -130 64 -240.5t174.5 -175t240.5 -64.5h559v-240h-639q-130 0 -248.5 51t-204 136.5t-136.5 204t-51 248.5v1680z" />
    <glyph glyph-name="Igrave" unicode="&#xcc;" 
d="M1001 2931h-239l-224 480h240zM1409 2078h-519v-1840h519v-240h-1279v240h520v1840h-520v240h1279v-240z" />
    <glyph glyph-name="Iacute" unicode="&#xcd;" 
d="M538 2931l224 480h239l-223 -480h-240zM1409 2078h-519v-1840h519v-240h-1279v240h520v1840h-520v240h1279v-240z" />
    <glyph glyph-name="Icircumflex" unicode="&#xce;" 
d="M1409 3271v-340l-639 640l-640 -640v340l640 639zM1409 2078h-519v-1840h519v-240h-1279v240h520v1840h-520v240h1279v-240z" />
    <glyph glyph-name="Idieresis" unicode="&#xcf;" 
d="M610 2931h-239l-3 233h239zM931 2931l-3 233h240l3 -233h-240zM1409 2078h-519v-1840h519v-240h-1279v240h520v1840h-520v240h1279v-240z" />
    <glyph glyph-name="Ntilde" unicode="&#xd1;" 
d="M370 3331h-240v101q0 157 111 268t269 111t269 -111t111 -268v-121q0 -58 41 -98.5t99 -40.5t99 40.5t41 98.5v100h239v-100q0 -158 -111 -269t-268 -111q-158 0 -269 111t-111 269v121q0 58 -41 99t-99 41t-99 -41t-41 -99v-101zM130 2318h241l800 -1743v1743h238v-2320
h-238l-800 1742v-1742h-241v2320z" />
    <glyph glyph-name="Ograve" unicode="&#xd2;" 
d="M1001 2931h-239l-224 480h240zM1409 1678v-1039q0 -130 -50.5 -248.5t-136 -204.5t-204 -137t-248.5 -51t-248.5 51t-204 137t-136.5 204.5t-51 248.5v1039q0 130 51 248.5t136.5 204t204 136.5t248.5 51t248.5 -50.5t204 -136.5t136 -204.5t50.5 -248.5zM1171 1678
q0 166 -117.5 283t-283.5 117t-282.5 -117t-116.5 -283v-1039q0 -166 116.5 -283t282.5 -117t283.5 117t117.5 283v1039z" />
    <glyph glyph-name="Oacute" unicode="&#xd3;" 
d="M538 2931l224 480h239l-223 -480h-240zM1409 1678v-1039q0 -130 -50.5 -248.5t-136 -204.5t-204 -137t-248.5 -51t-248.5 51t-204 137t-136.5 204.5t-51 248.5v1039q0 130 51 248.5t136.5 204t204 136.5t248.5 51t248.5 -50.5t204 -136.5t136 -204.5t50.5 -248.5z
M1171 1678q0 166 -117.5 283t-283.5 117t-282.5 -117t-116.5 -283v-1039q0 -166 116.5 -283t282.5 -117t283.5 117t117.5 283v1039z" />
    <glyph glyph-name="Ocircumflex" unicode="&#xd4;" 
d="M1409 3271v-340l-639 640l-640 -640v340l640 639zM1409 1678v-1039q0 -130 -50.5 -248.5t-136 -204.5t-204 -137t-248.5 -51t-248.5 51t-204 137t-136.5 204.5t-51 248.5v1039q0 130 51 248.5t136.5 204t204 136.5t248.5 51t248.5 -50.5t204 -136.5t136 -204.5
t50.5 -248.5zM1171 1678q0 166 -117.5 283t-283.5 117t-282.5 -117t-116.5 -283v-1039q0 -166 116.5 -283t282.5 -117t283.5 117t117.5 283v1039z" />
    <glyph glyph-name="Otilde" unicode="&#xd5;" 
d="M370 3331h-240v101q0 157 111 268t269 111t269 -111t111 -268v-121q0 -58 41 -98.5t99 -40.5t99 40.5t41 98.5v100h239v-100q0 -158 -111 -269t-268 -111q-158 0 -269 111t-111 269v121q0 58 -41 99t-99 41t-99 -41t-41 -99v-101zM1409 1678v-1039q0 -130 -50.5 -248.5
t-136 -204.5t-204 -137t-248.5 -51t-248.5 51t-204 137t-136.5 204.5t-51 248.5v1039q0 130 51 248.5t136.5 204t204 136.5t248.5 51t248.5 -50.5t204 -136.5t136 -204.5t50.5 -248.5zM1171 1678q0 166 -117.5 283t-283.5 117t-282.5 -117t-116.5 -283v-1039
q0 -166 116.5 -283t282.5 -117t283.5 117t117.5 283v1039z" />
    <glyph glyph-name="Odieresis" unicode="&#xd6;" 
d="M610 2931h-239l-3 233h239zM931 2931l-3 233h240l3 -233h-240zM1409 1678v-1039q0 -130 -50.5 -248.5t-136 -204.5t-204 -137t-248.5 -51t-248.5 51t-204 137t-136.5 204.5t-51 248.5v1039q0 130 51 248.5t136.5 204t204 136.5t248.5 51t248.5 -50.5t204 -136.5
t136 -204.5t50.5 -248.5zM1171 1678q0 166 -117.5 283t-283.5 117t-282.5 -117t-116.5 -283v-1039q0 -166 116.5 -283t282.5 -117t283.5 117t117.5 283v1039z" />
    <glyph glyph-name="multiply" unicode="&#xd7;" 
d="M233 788l367 367l-367 368l169 170l368 -368l368 367l169 -170l-367 -367l367 -367l-169 -170l-368 366l-367 -366z" />
    <glyph glyph-name="Oslash" unicode="&#xd8;" 
d="M1409 1678v-1039q0 -130 -50.5 -248.5t-136 -204.5t-204 -137t-248.5 -51q-185 0 -341 99l-44 -99h-263l123 276q-115 165 -115 365v1039q0 130 51 248.5t136.5 204t204 136.5t248.5 51q183 0 341 -99l44 99h262l-122 -275q114 -163 114 -365zM377 569l634 1428
q-106 81 -241 81q-166 0 -282.5 -117t-116.5 -283v-1039q0 -37 6 -70zM528 320q106 -81 242 -81q166 0 283.5 117t117.5 283v1039q0 36 -6 71z" />
    <glyph glyph-name="Ugrave" unicode="&#xd9;" 
d="M1001 2931h-239l-224 480h240zM130 2318h241v-1680q0 -166 116.5 -283t282.5 -117t283.5 117t117.5 283v1680h238v-1680q0 -130 -50.5 -248.5t-136 -204.5t-204 -136.5t-248.5 -50.5t-248.5 51t-204 136.5t-136.5 204t-51 248.5v1680z" />
    <glyph glyph-name="Uacute" unicode="&#xda;" 
d="M538 2931l224 480h239l-223 -480h-240zM130 2318h241v-1680q0 -166 116.5 -283t282.5 -117t283.5 117t117.5 283v1680h238v-1680q0 -130 -50.5 -248.5t-136 -204.5t-204 -136.5t-248.5 -50.5t-248.5 51t-204 136.5t-136.5 204t-51 248.5v1680z" />
    <glyph glyph-name="Ucircumflex" unicode="&#xdb;" 
d="M1409 3271v-340l-639 640l-640 -640v340l640 639zM130 2318h241v-1680q0 -166 116.5 -283t282.5 -117t283.5 117t117.5 283v1680h238v-1680q0 -130 -50.5 -248.5t-136 -204.5t-204 -136.5t-248.5 -50.5t-248.5 51t-204 136.5t-136.5 204t-51 248.5v1680z" />
    <glyph glyph-name="Udieresis" unicode="&#xdc;" 
d="M610 2931h-239l-3 233h239zM931 2931l-3 233h240l3 -233h-240zM130 2318h241v-1680q0 -166 116.5 -283t282.5 -117t283.5 117t117.5 283v1680h238v-1680q0 -130 -50.5 -248.5t-136 -204.5t-204 -136.5t-248.5 -50.5t-248.5 51t-204 136.5t-136.5 204t-51 248.5v1680z" />
    <glyph glyph-name="Yacute" unicode="&#xdd;" 
d="M538 2931l224 480h239l-223 -480h-240zM371 2318v-520q0 -45 22 -91.5t57 -84.5t77.5 -74t85.5 -62.5l78 -46.5t57 -31l22 -10l22.5 11t56.5 29.5t79.5 47t84 62t79.5 74.5t56 84t23 92v520h238v-520q0 -73 -37 -149t-91.5 -136t-129 -120t-135.5 -99t-126 -75v-1221
h-240v1221q-65 36 -126 75t-136 99t-129 120t-91.5 136t-37.5 149v520h241z" />
    <glyph glyph-name="agrave" unicode="&#xe0;" 
d="M1001 1895h-239l-224 480h240zM768 1282h4q130 0 248 -51t203 -136.5t135.5 -204t50.5 -248.5v-640h-639q-130 0 -248.5 51t-204 136.5t-136.5 204t-51 248.5q0 174 85.5 321t232.5 233t320 86zM770 1042q-166 0 -282.5 -117t-116.5 -283t116.5 -283t282.5 -117h401v400
q0 166 -116.5 282.5t-282.5 117.5h-2z" />
    <glyph glyph-name="aacute" unicode="&#xe1;" 
d="M538 1895l224 480h239l-223 -480h-240zM768 1282h4q130 0 248 -51t203 -136.5t135.5 -204t50.5 -248.5v-640h-639q-130 0 -248.5 51t-204 136.5t-136.5 204t-51 248.5q0 174 85.5 321t232.5 233t320 86zM770 1042q-166 0 -282.5 -117t-116.5 -283t116.5 -283t282.5 -117
h401v400q0 166 -116.5 282.5t-282.5 117.5h-2z" />
    <glyph glyph-name="acircumflex" unicode="&#xe2;" 
d="M1409 2236v-340l-639 640l-640 -640v340l640 639zM768 1282h4q130 0 248 -51t203 -136.5t135.5 -204t50.5 -248.5v-640h-639q-130 0 -248.5 51t-204 136.5t-136.5 204t-51 248.5q0 174 85.5 321t232.5 233t320 86zM770 1042q-166 0 -282.5 -117t-116.5 -283t116.5 -283
t282.5 -117h401v400q0 166 -116.5 282.5t-282.5 117.5h-2z" />
    <glyph glyph-name="atilde" unicode="&#xe3;" 
d="M370 2295h-240v101q0 157 111 268t269 111t269 -111t111 -268v-121q0 -58 41 -98.5t99 -40.5t99 40.5t41 98.5v100h239v-100q0 -158 -111 -269t-268 -111q-158 0 -269 111t-111 269v121q0 58 -41 99t-99 41t-99 -41t-41 -99v-101zM768 1282h4q130 0 248 -51t203 -136.5
t135.5 -204t50.5 -248.5v-640h-639q-130 0 -248.5 51t-204 136.5t-136.5 204t-51 248.5q0 174 85.5 321t232.5 233t320 86zM770 1042q-166 0 -282.5 -117t-116.5 -283t116.5 -283t282.5 -117h401v400q0 166 -116.5 282.5t-282.5 117.5h-2z" />
    <glyph glyph-name="adieresis" unicode="&#xe4;" 
d="M610 1896h-239l-3 233h239zM931 1896l-3 233h240l3 -233h-240zM768 1282h4q130 0 248 -51t203 -136.5t135.5 -204t50.5 -248.5v-640h-639q-130 0 -248.5 51t-204 136.5t-136.5 204t-51 248.5q0 174 85.5 321t232.5 233t320 86zM770 1042q-166 0 -282.5 -117t-116.5 -283
t116.5 -283t282.5 -117h401v400q0 166 -116.5 282.5t-282.5 117.5h-2z" />
    <glyph glyph-name="aring" unicode="&#xe5;" 
d="M770 2615q148 0 253.5 -105t105.5 -254t-105.5 -254.5t-253.5 -105.5t-253.5 105.5t-105.5 254.5t105.5 254t253.5 105zM770 2377q-50 0 -85 -35.5t-35 -85.5t35 -85.5t85 -35.5t85 35.5t35 85.5t-35 85.5t-85 35.5zM768 1282h4q130 0 248 -51t203 -136.5t135.5 -204
t50.5 -248.5v-640h-639q-130 0 -248.5 51t-204 136.5t-136.5 204t-51 248.5q0 174 85.5 321t232.5 233t320 86zM770 1042q-166 0 -282.5 -117t-116.5 -283t116.5 -283t282.5 -117h401v400q0 166 -116.5 282.5t-282.5 117.5h-2z" />
    <glyph glyph-name="ae" unicode="&#xe6;" 
d="M1637 1l-445 1h-10h-640q-130 0 -248.5 50.5t-204 136.5t-136 204.5t-50.5 248.5t50.5 248.5t135.5 204t203 136.5t248 51h5v2l713 -3q157 -1 268 -112t111 -268q0 -158 -111 -269t-268 -111l-76 1v-280h10l445 -1v-240zM541 1042h-1q-165 -1 -281 -118t-116 -282
q0 -166 116.5 -283t282.5 -117h401v400q0 166 -116.5 282.5t-282.5 117.5h-2h-1zM1041 1043q100 -125 130 -281l87 -1q58 0 99 41t41 99t-41 99t-99 41z" />
    <glyph glyph-name="egrave" unicode="&#xe8;" 
d="M1001 1895h-239l-224 480h240zM1409 2h-639q-130 0 -248.5 51t-204 136.5t-136.5 204t-51 248.5q0 167 79.5 310t217.5 230.5t303 97.5v2h301q157 0 267.5 -111t110.5 -269t-110.5 -269t-267.5 -111h-642q39 -123 143.5 -201.5t237.5 -78.5h639v-240zM389 762h642
q58 0 99 41t41 99t-41 99t-99 41h-261q-133 0 -237.5 -78.5t-143.5 -201.5z" />
    <glyph glyph-name="eacute" unicode="&#xe9;" 
d="M538 1895l224 480h239l-223 -480h-240zM1409 2h-639q-130 0 -248.5 51t-204 136.5t-136.5 204t-51 248.5q0 167 79.5 310t217.5 230.5t303 97.5v2h301q157 0 267.5 -111t110.5 -269t-110.5 -269t-267.5 -111h-642q39 -123 143.5 -201.5t237.5 -78.5h639v-240zM389 762
h642q58 0 99 41t41 99t-41 99t-99 41h-261q-133 0 -237.5 -78.5t-143.5 -201.5z" />
    <glyph glyph-name="ecircumflex" unicode="&#xea;" 
d="M1409 2236v-340l-639 640l-640 -640v340l640 639zM1409 2h-639q-130 0 -248.5 51t-204 136.5t-136.5 204t-51 248.5q0 167 79.5 310t217.5 230.5t303 97.5v2h301q157 0 267.5 -111t110.5 -269t-110.5 -269t-267.5 -111h-642q39 -123 143.5 -201.5t237.5 -78.5h639v-240z
M389 762h642q58 0 99 41t41 99t-41 99t-99 41h-261q-133 0 -237.5 -78.5t-143.5 -201.5z" />
    <glyph glyph-name="edieresis" unicode="&#xeb;" 
d="M610 1896h-239l-3 233h239zM931 1896l-3 233h240l3 -233h-240zM1409 2h-639q-130 0 -248.5 51t-204 136.5t-136.5 204t-51 248.5q0 167 79.5 310t217.5 230.5t303 97.5v2h301q157 0 267.5 -111t110.5 -269t-110.5 -269t-267.5 -111h-642q39 -123 143.5 -201.5
t237.5 -78.5h639v-240zM389 762h642q58 0 99 41t41 99t-41 99t-99 41h-261q-133 0 -237.5 -78.5t-143.5 -201.5z" />
    <glyph glyph-name="igrave" unicode="&#xec;" 
d="M1001 1895h-239l-224 480h240zM1409 0h-1279v241h520v800h-520v239h760v-1039h519v-241z" />
    <glyph glyph-name="iacute" unicode="&#xed;" 
d="M538 1895l224 480h239l-223 -480h-240zM1409 0h-1279v241h520v800h-520v239h760v-1039h519v-241z" />
    <glyph glyph-name="icircumflex" unicode="&#xee;" 
d="M1409 2236v-340l-639 640l-640 -640v340l640 639zM1409 0h-1279v241h520v800h-520v239h760v-1039h519v-241z" />
    <glyph glyph-name="idieresis" unicode="&#xef;" 
d="M610 1896h-239l-3 233h239zM931 1896l-3 233h240l3 -233h-240zM1409 0h-1279v241h520v800h-520v239h760v-1039h519v-241z" />
    <glyph glyph-name="ntilde" unicode="&#xf1;" 
d="M370 2295h-240v101q0 157 111 268t269 111t269 -111t111 -268v-121q0 -58 41 -98.5t99 -40.5t99 40.5t41 98.5v100h239v-100q0 -158 -111 -269t-268 -111q-158 0 -269 111t-111 269v121q0 58 -41 99t-99 41t-99 -41t-41 -99v-101zM130 2v640q0 130 51 248.5t136.5 204
t204 136.5t248.5 51t248.5 -50.5t204 -136.5t136 -204.5t50.5 -248.5v-640h-238v640q0 166 -117.5 283t-283.5 117t-282.5 -117t-116.5 -283v-640h-241z" />
    <glyph glyph-name="ograve" unicode="&#xf2;" 
d="M1001 1895h-239l-224 480h240zM770 1282q130 0 248.5 -50.5t204 -136.5t136 -204.5t50.5 -248.5t-50.5 -248.5t-136 -204.5t-204 -136.5t-248.5 -50.5t-248.5 51t-204 136.5t-136.5 204t-51 248.5t51 248.5t136.5 204t204 136.5t248.5 51zM770 1042q-166 0 -282.5 -117
t-116.5 -283t116.5 -283t282.5 -117t283.5 117t117.5 283t-117.5 283t-283.5 117z" />
    <glyph glyph-name="oacute" unicode="&#xf3;" 
d="M538 1895l224 480h239l-223 -480h-240zM770 1282q130 0 248.5 -50.5t204 -136.5t136 -204.5t50.5 -248.5t-50.5 -248.5t-136 -204.5t-204 -136.5t-248.5 -50.5t-248.5 51t-204 136.5t-136.5 204t-51 248.5t51 248.5t136.5 204t204 136.5t248.5 51zM770 1042
q-166 0 -282.5 -117t-116.5 -283t116.5 -283t282.5 -117t283.5 117t117.5 283t-117.5 283t-283.5 117z" />
    <glyph glyph-name="ocircumflex" unicode="&#xf4;" 
d="M1409 2236v-340l-639 640l-640 -640v340l640 639zM770 1282q130 0 248.5 -50.5t204 -136.5t136 -204.5t50.5 -248.5t-50.5 -248.5t-136 -204.5t-204 -136.5t-248.5 -50.5t-248.5 51t-204 136.5t-136.5 204t-51 248.5t51 248.5t136.5 204t204 136.5t248.5 51zM770 1042
q-166 0 -282.5 -117t-116.5 -283t116.5 -283t282.5 -117t283.5 117t117.5 283t-117.5 283t-283.5 117z" />
    <glyph glyph-name="otilde" unicode="&#xf5;" 
d="M370 2295h-240v101q0 157 111 268t269 111t269 -111t111 -268v-121q0 -58 41 -98.5t99 -40.5t99 40.5t41 98.5v100h239v-100q0 -158 -111 -269t-268 -111q-158 0 -269 111t-111 269v121q0 58 -41 99t-99 41t-99 -41t-41 -99v-101zM770 1282q130 0 248.5 -50.5t204 -136.5
t136 -204.5t50.5 -248.5t-50.5 -248.5t-136 -204.5t-204 -136.5t-248.5 -50.5t-248.5 51t-204 136.5t-136.5 204t-51 248.5t51 248.5t136.5 204t204 136.5t248.5 51zM770 1042q-166 0 -282.5 -117t-116.5 -283t116.5 -283t282.5 -117t283.5 117t117.5 283t-117.5 283
t-283.5 117z" />
    <glyph glyph-name="odieresis" unicode="&#xf6;" 
d="M610 1896h-239l-3 233h239zM931 1896l-3 233h240l3 -233h-240zM770 1282q130 0 248.5 -50.5t204 -136.5t136 -204.5t50.5 -248.5t-50.5 -248.5t-136 -204.5t-204 -136.5t-248.5 -50.5t-248.5 51t-204 136.5t-136.5 204t-51 248.5t51 248.5t136.5 204t204 136.5t248.5 51z
M770 1042q-166 0 -282.5 -117t-116.5 -283t116.5 -283t282.5 -117t283.5 117t117.5 283t-117.5 283t-283.5 117z" />
    <glyph glyph-name="oslash" unicode="&#xf8;" 
d="M1171 642q0 125 -74 230l-487 -597q77 -33 160 -33q166 0 283.5 117t117.5 283zM371 642q0 -134 80 -241l490 602q-81 39 -171 39q-166 0 -282.5 -117t-116.5 -283zM130 642q0 130 51 248.5t136.5 204t204 136.5t248.5 51q178 0 326 -89l83 102h263l-190 -232
q75 -85 116 -194t41 -227q0 -130 -50.5 -248.5t-136 -204.5t-204 -136.5t-248.5 -50.5q-168 0 -315 82l-70 -86h-263l175 214q-79 87 -123 198t-44 232z" />
    <glyph glyph-name="ugrave" unicode="&#xf9;" 
d="M1001 1895h-239l-224 480h240zM130 1282h241v-640q0 -166 116.5 -283t282.5 -117t283.5 117t117.5 283v640h238v-640q0 -130 -50.5 -248.5t-136 -204.5t-204 -136.5t-248.5 -50.5t-248.5 51t-204 136.5t-136.5 204t-51 248.5v640z" />
    <glyph glyph-name="uacute" unicode="&#xfa;" 
d="M538 1895l224 480h239l-223 -480h-240zM130 1282h241v-640q0 -166 116.5 -283t282.5 -117t283.5 117t117.5 283v640h238v-640q0 -130 -50.5 -248.5t-136 -204.5t-204 -136.5t-248.5 -50.5t-248.5 51t-204 136.5t-136.5 204t-51 248.5v640z" />
    <glyph glyph-name="ucircumflex" unicode="&#xfb;" 
d="M1409 2236v-340l-639 640l-640 -640v340l640 639zM130 1282h241v-640q0 -166 116.5 -283t282.5 -117t283.5 117t117.5 283v640h238v-640q0 -130 -50.5 -248.5t-136 -204.5t-204 -136.5t-248.5 -50.5t-248.5 51t-204 136.5t-136.5 204t-51 248.5v640z" />
    <glyph glyph-name="udieresis" unicode="&#xfc;" 
d="M610 1896h-239l-3 233h239zM931 1896l-3 233h240l3 -233h-240zM130 1282h241v-640q0 -166 116.5 -283t282.5 -117t283.5 117t117.5 283v640h238v-640q0 -130 -50.5 -248.5t-136 -204.5t-204 -136.5t-248.5 -50.5t-248.5 51t-204 136.5t-136.5 204t-51 248.5v640z" />
    <glyph glyph-name="yacute" unicode="&#xfd;" 
d="M538 1895l224 480h239l-223 -480h-240zM1409 -401q0 -130 -50.5 -248.5t-136 -204.5t-204 -136.5t-248.5 -50.5t-248.5 51t-204 136.5t-136.5 204t-51 248.5v1h233q2 -167 121 -283.5t286 -116.5q164 0 280 117t121 283v540q-173 -140 -401 -140q-130 0 -248.5 51
t-204 136.5t-136.5 204t-51 248.5v639h241v-639q0 -166 116.5 -283t282.5 -117t283.5 117t117.5 283v639h238v-1680z" />
    <glyph glyph-name="ydieresis" unicode="&#xff;" 
d="M610 1896h-239l-3 233h239zM931 1896l-3 233h240l3 -233h-240zM1409 -401q0 -130 -50.5 -248.5t-136 -204.5t-204 -136.5t-248.5 -50.5t-248.5 51t-204 136.5t-136.5 204t-51 248.5v1h233q2 -167 121 -283.5t286 -116.5q164 0 280 117t121 283v540q-173 -140 -401 -140
q-130 0 -248.5 51t-204 136.5t-136.5 204t-51 248.5v639h241v-639q0 -166 116.5 -283t282.5 -117t283.5 117t117.5 283v639h238v-1680z" />
    <glyph glyph-name="dotlessi" unicode="&#x131;" 
d="M1409 0h-1279v241h520v800h-520v239h760v-1039h519v-241z" />
    <glyph glyph-name="dotlessj" unicode="&#x237;" 
d="M1409 1044h-479v-1440q0 -130 -50.5 -248.5t-136 -204.5t-204 -136.5t-248.5 -50.5h-161v240h161q166 0 282.5 117t116.5 283v1440h-560v240h1279v-240z" />
  </font>
</defs>
</svg>
